<?xml version="1.0" encoding="utf-8"?>
<!-- Generator: Adobe Illustrator 23.0.6, SVG Export Plug-In . SVG Version: 6.00 Build 0)  -->
<svg version="1.1" id="Capa_1" xmlns="http://www.w3.org/2000/svg" xmlns:xlink="http://www.w3.org/1999/xlink" x="0px" y="0px"
	 viewBox="0 0 496 496" style="enable-background:new 0 0 496 496;" xml:space="preserve">
<style type="text/css">
	.st0{fill:#345370;stroke:#000000;stroke-width:0.25;stroke-miterlimit:10;}
	.st1{fill:#345370;}
</style>
<g>
	<g>
		<path class="st0" d="M488,200h-37.6c-5.1-21.6-13.7-42.3-25.4-61.2l26.6-26.6c3.1-3.1,3.1-8.2,0-11.3l-56.5-56.6
			c-3.1-3.1-8.2-3.1-11.3,0L357.2,71c-18.9-11.7-39.5-20.3-61.2-25.4V8c0-4.4-3.6-8-8-8h-80c-4.4,0-8,3.6-8,8v37.6
			c-21.6,5.1-42.3,13.7-61.2,25.4l-26.6-26.6c-3.1-3.1-8.2-3.1-11.3,0l-56.6,56.6c-3.1,3.1-3.1,8.2,0,11.3L71,138.8
			c-11.7,18.9-20.3,39.5-25.4,61.2H8c-4.4,0-8,3.6-8,8v80c0,4.4,3.6,8,8,8h37.6c5.1,21.6,13.7,42.3,25.4,61.2l-26.6,26.6
			c-3.1,3.1-3.1,8.2,0,11.3l56.6,56.6c3.2,3,8.1,3,11.3,0l26.6-26.6c18.9,11.7,39.5,20.3,61.2,25.4V488c0,4.4,3.6,8,8,8h80
			c4.4,0,8-3.6,8-8v-37.6c21.6-5.1,42.3-13.7,61.2-25.4l26.6,26.6c3.1,3.1,8.2,3.1,11.3,0l56.6-56.6c3.1-3.1,3.1-8.2,0-11.3
			L425,357.1c11.7-18.9,20.3-39.5,25.4-61.1H488c4.4,0,8-3.6,8-8v-80C496,203.6,492.4,200,488,200z M480,280h-36
			c-3.8,0-7.1,2.7-7.8,6.4c-4.9,24.1-14.4,47-28,67.4c-2.1,3.2-1.7,7.4,1,10.1l25.5,25.5l-45.3,45.3l-25.5-25.5
			c-2.7-2.7-6.9-3.1-10.1-1c-20.5,13.6-43.4,23.1-67.4,28c-3.7,0.8-6.4,4-6.4,7.8v36h-64v-36c0-3.8-2.7-7.1-6.4-7.8
			c-24.1-4.9-47-14.4-67.4-28c-3.2-2.1-7.4-1.7-10.1,1l-25.5,25.5l-45.3-45.2l25.5-25.5c2.7-2.7,3.1-6.9,1-10.1
			c-13.6-20.5-23.1-43.4-28-67.4c-0.8-3.7-4-6.4-7.8-6.4H16v-64h36c3.8,0,7.1-2.7,7.8-6.4c4.9-24.1,14.4-47,28-67.4
			c2.1-3.2,1.7-7.4-1-10.1l-25.5-25.5l45.3-45.3l25.5,25.5c2.7,2.7,6.9,3.1,10.1,1c20.5-13.6,43.4-23.1,67.4-28
			c3.7-0.8,6.4-4,6.4-7.8V16h64v36c0,3.8,2.7,7.1,6.4,7.8c24.1,4.9,47,14.4,67.4,28c3.2,2.1,7.4,1.7,10.1-1l25.5-25.5l45.3,45.3
			l-25.5,25.5c-2.7,2.7-3.1,6.9-1,10.1c13.6,20.5,23.1,43.4,28,67.4c0.8,3.7,4,6.4,7.8,6.4h36V280z"/>
	</g>
</g>
<g>
	<g>
		<path class="st1" d="M248,160c-48.6,0-88,39.4-88,88s39.4,88,88,88s88-39.4,88-88C335.9,199.4,296.6,160.1,248,160z M248,320
			c-39.8,0-72-32.2-72-72c0-39.8,32.2-72,72-72c39.8,0,72,32.2,72,72C320,287.7,287.7,320,248,320z"/>
	</g>
</g>
</svg>
