<svg xmlns="http://www.w3.org/2000/svg" viewBox="0 0 431.09 534.99">
  <title>Louis Cuenot's head</title>
  <g>
    <path fill="#9B131E" d="M-295.33,237.79c1.37,1.64.3,2.55-1,3.49-1.72,1.25-1.64,4.45-4.51,4.32.07,1.08.56,2.87.13,3.12a50.42,50.42,0,0,1-6.31,2.81l-.14-1.87-3.18.32,1.46-3.12-5.21-1.27c-.1,1.28-.19,2.35-.21,2.67l4.54,3.78c-3.19,2-5.3,2.33-6.76-.36l-2.2,4-3.63-2,2.24,4.22c-4,2-8.3,4.87-13.76,4.22a4.81,4.81,0,0,1-2.76-1.71c-1.35-1.64-2.44-3.5-3.64-5.27l-.87.45c.06.75.44,1.74.1,2.2a19.59,19.59,0,0,1-2.9,2.69c-2-2.57-3.78-.6-5.38.48-2.2,1.5-4.21,2.62-6.76.64-.47-.37-1.55,0-2.57.81l8.93,5.12-.1.43-8-2.09c.2,2.35.33,3.94.52,6.21l3.63,2.5-5.11,1.48c-.15-3.24-5.5-4.45-2.44-8.65-1.25.8-2.49,1.6-3.29,2.1-2.42-2.11-4.59-4-6.8-5.92-.33-.28-1.08-.68-1.17-.58-3.5,3.74-4.49-1.69-6.95-1.92a18.23,18.23,0,0,1-5.55-1.72c-2.22-1-4.3-2.32-7-3.82a10.78,10.78,0,0,1-3.66,1.85c-1.49.26-3.17-.54-4.75-1.41l3-.49-3.51-2.65c-.72.85-1.34,1.59-2.07,2.44,2,2,2.57,3.62-1.27,4l1.75,3.08c-1.67-.41-2.7-.93-3.67-.83a5.85,5.85,0,0,0-2.21,1.15,96.22,96.22,0,0,1,3.09,10c.21,1-1.17,2.43-1.85,3.64-.57,1-1.17,2-2,3.4-3.93-.09-6-3.47-7.62-7.48l-1.2.72,3.09,10.4-.56.58-1.92-1.39-3,2.84c.27.47.81,1.36,1.52,2.54l2.39-1.93.74.35c-.61,1.31-1.22,2.61-2.16,4.64l1.53,2-2.8,1.5.09.52,2-.25c1.38,4.27,1.38,4.27-.58,5.45.42,2.37.84,4.65,1.27,7.08-3.23-1.31-2.29-7.15-8.12-5.75a14.27,14.27,0,0,1,2.21,2,14.75,14.75,0,0,1,2.14,3.85,14.36,14.36,0,0,1,.13,3.89h1l-.79,4.58c-.4,0-1.59.14-2.78.15-27.88,0-55.75,0-83.62.06a8.91,8.91,0,0,1-6.94-2.87c-5.17-5.25-10.54-10.3-15.76-15.5-2.93-2.92-2.49-3.16.88-5.54,2.31-1.63,3.79-4.46,5.52-6.85a73.62,73.62,0,0,0,10.87-20.71c1.36-4.23.39-8-.89-11.89-2.26-6.89-3.81-13.9-3.42-21.22a3.9,3.9,0,0,1,.71-2.42c6.5-6,3.3-13.3,2.91-20.31-.41-7.53-5-12.94-8.54-19-2.24-3.8-3.62-8.1-5.53-12.11a24.26,24.26,0,0,0-3.53-6.11c-4.2-4.54-4.42-10.76-7.09-15.83-5.67-10.74-12.5-20.89-18-31.73-3.36-6.66-5.19-14.12-7.52-21.27-2.86-8.74-3.91-18.58-8.7-26-5.11-8-6-16.23-7.88-24.7-1.12-5-3.86-9.51-5.58-14.35a28.12,28.12,0,0,1-1.68-8c-.26-5.59-.08-11.2-.08-17.22-3.53-1.53-3.21-4.48-2.32-8.13.74-3,.42-6.39.33-9.6-.26-10.45-.74-20.89-.86-31.34,0-1.67,1.36-3.35,2.09-5,2.4-5.54,4.8-11.07,7.22-16.67l-3.73-2.52c2.8-4.67,4.89-9.8,8.4-13.62a41.94,41.94,0,0,0,9-14.77A51.62,51.62,0,0,1-560-101c4-6,8-12,15-15.33,1.15-.55,2.17-2.72,2.15-4.12a6.42,6.42,0,0,1,3-6l4-2.71c2.84-1.89,5.39-3.57,4.55-8-.7-3.68,2.88-7.14,6.51-8.94a29,29,0,0,0,7.31-5.68c2.41-2.45,4.72-4.45,7.3-3.43,2.76-2.81,5.05-5.08,7.26-7.42,1.52-1.62,3-3.31,4.37-5,3.14-3.92,6.58-4.67,10.86-2.29,5.43,3,6.78,2.5,10.63-2.21,1.86-2.28,4.73-3.77,7.22-5.5,1.31-.92,2.86-1.5,4.19-2.4,5.44-3.69,10.71-7.64,16.3-11.07a15.36,15.36,0,0,1,7.75-2.34c5.93.08,11.15-1.93,16.59-3.81,4.59-1.59,9.58-2,14.37-3,4.51-1,8.34-5,13.55-3,.29.11,1-.7,1.42-1.12,4.06-3.64,5.63-3.68,10-.24,4.54,3.58,7.41,3.69,12,.45,3.66-2.56,5.91-1.4,8.33,4.5,1.34-1.19,2.57-2.41,3.93-3.46,3.08-2.39,5.31-5.25,10.28-5.53,3.95-.22,7.75-4.52,11.44-7.25,3-2.23,5.81-4.15,9.79-1.94,1.27.71,3.19.16,4.78.42a24.13,24.13,0,0,1,5.69,1.37c2.09.89,3.37,2.24.54,4.12-.93.62-1.44,1.87-2.26,3h20.58c-.28,1.15-.59,2.39-.84,3.41,1.89,1.25,3.56,3,5.56,3.53,2.21.6,4.71.13,6.68.88,1,.8,1.83,2,2.94,2.33,3.62,1.05,7.13,1.4,10.72-.92,1.66-1.08,4.28-.67,6.74-1v4.95c0,5.2,1.07,6.3,6.42,6.67l5.5.33c.86,2,1,3.71,1.77,4,5.38,2.07,10.86,3.87,16.46,5.81-.25,1.81-.5,3.55-.69,4.86,4.83.6,9.44.42,13.44,1.91,2.61,1,4.48,4.24,6.39,6.7,1.64,2.11,2.5,4.91,4.35,6.76,6.25,6.22,12.71,12.26,19.29,18.14,1.94,1.73,4.89,2.32,6.8,4.07,3.9,3.6,7.05,8.08,11.17,11.37,6.41,5.13,9.29,12.73,14.3,18.81,1.11,1.33.87,3.75,1.36,5.64.82,3.2,1.39,6.52,2.7,9.51s2.1,5.58.21,8.69c-1,1.58-1,3.74-1.48,5.62-.41,1.48-.94,2.93-1.41,4.39l-1.07-.29c-.15-1.76-.29-3.52-.43-5.29l-1.14-.24c-.25,1.28-.46,2.58-.78,3.85a4.94,4.94,0,0,1-.87,2.18c-2.62,2.73-5.29,5.42-8.06,8-1.25,1.16-2.7,2.68-4.21,2.88-3.61.49-6.15,2.66-8.94,4.51a2.6,2.6,0,0,0-1,1.2c-.65,2-1.11,4-1.84,6a79.36,79.36,0,0,1-3.24,7.65,16.63,16.63,0,0,1-2.52,3c-.1-.5-.19-1-.28-1.5-1.78-.53-4.34-2-5.16-1.39-1.5,1.18-3.8,2.57-3.27,5.47.14.81-1.2,1.89-1.86,2.84-.77-.56-1.88-.94-2.25-1.69-2.15-4.39-3.58-9.24-6.33-13.19-2.09-3-6.12-4.57-8.65-7.36-2.19-2.43-7.36-2.4-6.59-7.51a4.15,4.15,0,0,0-2.67-.79c-1,.32-1.55,1.61-2.48,2.2a8.63,8.63,0,0,1-2.79.54l3-4.23c-2.32-.87-1.85-4.93-6-4.38-2.5.33-5.31-1.34-7.83.64-.83.65-1.61,1.34-2.57,2.14-5.95-3.18-6.71-2.83-8.44,4.31l-1.31,1.31-2.2-2.72.22-.76c.16.84.27,1.68.47,2.51.27,1.07,1.17,2.41.8,3.11-.52,1-1.93,1.53-3,2.21a4.09,4.09,0,0,0-2.12,2.15l6.32-.7.44-2.62a5.28,5.28,0,0,1,.9.22c0,1.68-.07,3.36-.12,5l-1.35,0v-1.53l-.89-.72a36.32,36.32,0,0,0-3.51,4.18c-.36.57.17,1.71.33,2.8l-8.11-.69c2,3-3.34,7.94,3.83,8.07L-275-37l4.56,5.54c-2.15,2.93-5,2.5-7-1.18-.7-1.23-2-2.1-3.58-3.65-.09,1.44-.14,1.87-.11,1.88,3.68.67,1.42,3.74,2.19,5.57a7.39,7.39,0,0,1,0,2.63l-2.45.86,7.08,2.65-1.32-2.79,2.22-.11c.14,1.95.28,3.82.43,5.92,10.49-4.33,20.67-2.58,30.8.13l-2.78,2.14c-4-1.69-4.75-1.44-8.14,3.51-2,3-6.67,2.75-10-.6l-3.68,2,3.47.94-5.17,4.7c2.2,0,3.74,2.63,6.32,1.08.21-.13.62,0,.9.09,3.78,1.39,4.28,1.15,5-2.19l4.75-1.29c-.95,2.22-2,4.66-3.06,7.11l1,.6,3.05-1.82,3.76,5.57L-253.95.57a13.23,13.23,0,0,0-2.42,2.18,6.4,6.4,0,0,0-1.48,3.44,10.36,10.36,0,0,0,1.56,4.08c.2.38,1.05.43,2.13.82l-2.42,2c2.07,4.72,7.57,1.22,10.55,4.5l-2.64,1.71c.94.58,1.64,1.37,2.38,1.41a27.44,27.44,0,0,1,14.38,5.32c2.91,2,6.29,3.31,9.21,5.29,2.61,1.77,5.78,3,6,7.19.23,4-.49,5.8-4.32,6.88-1.5.42-3,.86-3.8,1.09.76,1.72,1.31,3.18,2,4.54a6.16,6.16,0,0,0,1.9,2.53c2,1.13,4.22,1.91,6.31,2.89a8.07,8.07,0,0,1,1.82,1.25c1.83,1.57,3.62,3.17,5.69,5L-208.86,64c.55,1.68,4.36-.11,3.91,3.43l3.17-1.72,1.26,1.44,1-2.83c.3,2.29.47,3.55.63,4.85-3.54,0-2.73-.05-2.46,3.57a6.45,6.45,0,0,0,4.21,5.85c1.28.46,2.2,1.29,3.36,1.79-3.31,2.4,1.87,4,.12,6.37H-190l.56-2.66a3,3,0,0,1,.81,0c1.14.39,2.27.81,3,1.09L-188,87.81c.95.41,2.14,1.43,2.79,1.15,3.4-1.46,4.83,1.47,6.58,3a80.11,80.11,0,0,1,7.89,8.46c.44.52.3,1.66.2,2.49s-.81,1.49-.69,2.12c.43,2.18-.13,5.54,4.24,4.46l-2,1c.51.84,1,1.63,1.6,2.58h-3.11v7.82l-2-3-1.87,2.83-2.28-1c-.07,1.58-.13,3-.14,3.23l-6.87-3.3c.17-.51.35-1,.52-1.51l-2.52,3.69.8.67c-2,.32-5.13-.05-5.81,1.07-2.4,3.94-7.25,1.37-8.86,3.27-1.89,2.24-4.79,2.66-6.34,5.15-1.43,2.29-3.78,4-5.47,6.17a2.7,2.7,0,0,0,.39,2.65,9,9,0,0,0,4.08,1.29c.41,0,1.43-1.52,1.33-2.22-.47-3.11,1.25-4.28,3.72-5.48,6-2.89,12.05-3.14,18.36-1.7,1.43.33,2.92.39,4.37.63,3.12.52,4.15,3.3,2.22,5.82a4.15,4.15,0,0,0-.64,1.74c-.13.72.18,1.81-.21,2.15-1.26,1.1-1.8.92-3.4.21a2.37,2.37,0,0,0-2,.17c-2.46,1.66-4.58.51-6.95-.32a12.92,12.92,0,0,0-6.05-.69c-2.26.35-1.68,2.6-1.58,4.23a12.94,12.94,0,0,0,.72,2.67l-4.12-1.49c1.19,4.55,2.22,8.53,3.29,12.68l-3,.69a30.79,30.79,0,0,1,2.16,3.41c1.43,3,.59,4.3-2.67,4.6-2.48.22-4.44,1.62-6.56,2.87A63.32,63.32,0,0,1-220.33,178c-2,.62-4.58-.86-6.9-1.38l.06-1,4.43-.77a8.75,8.75,0,0,0-1.25-2.67,2.34,2.34,0,0,0-2.26-.38c-.58.46-.64,1.57-.87,2.26-2.7-3.23-2.2-5.15,1.82-6.1a5,5,0,0,0,2.26-1c1.23-1.18,2.27-2.55,3-3.37.15-2.21-.44-4.87.62-6.06,1.28-1.44,4-1.63,6.52-2.53-.94-1.35-2.07-3-3.17-4.54l-3.46,1.53c.67-.93,1.16-2.15,2-2.69.54-.33,1.72.39,3.16-.05a15,15,0,0,0-1.89-2.21c-1.63-1.3-3.65-2.21-5-3.73-2.48-2.8-5.33-5.64-6.64-9-1.52-3.89-1.55-8.37-2.18-12.6-.07-.52.47-1.43.27-1.6-3.9-3.16-3.23-8.1-4.69-12.18-.61-1.7-1.22-4.29,1.5-5.49-1.57-3.33,1.93-8-3.12-10.31,1-1.82,2.94-3.76-.94-4.21l1.38-2.53-8.84,1.6c.19,1,.33,1.73.69,3.6l-7.89-4.42c5.15-2.52,2.12-5.09,1.27-7.72-1.31-4.08-5.73-1.6-8.15-4l3.4-.45.35-.76c-1.19-.74-2.29-1.81-3.59-2.14-5.41-1.39-10.85-2.75-16.35-3.7-2.3-.4-4.61.48-4.68,3.52l-11-3.1c.57,2.66,3.19,6.1-2.25,5-.27-.06-.77,1.61-1.36,2.3-2.52,3-4.18,2.77-6.12-.85L-302,75.34l-.36-.58,3.52-2.24c1,2.92,2.39,2.71,4.19.74.63-.7,1.72-1.11,2.12-1.9.69-1.36,1.56-3,1.27-4.36-.2-.91-2.2-1.43-3.64-2.27,3.9-2.54,7.6-5.9,12-7.51,4.72-1.76,10.09-1.71,15.11-2.8,7-1.52,14-3.19,20.93-5.14,2.88-.81,5.43-2.2,8.34-.08.62.46,2.11.18,2.93-.27.42-.23.22-1.58.3-2.41,3-2.06,7.51,3.11,10.86-2.84l-3.95,1.5c-1.52-.42-2.83-1.26-3.74-.94-1.84.63-2.53.36-3.33-1.48-2-4.56-9.65-8.08-14.76-7.21a5,5,0,0,1-2.8-.56c-1.73-.82-3-.9-4.68.52-.77.66-2.8-.28-4.25-.25a3.19,3.19,0,0,0-1.85,1c-.4.39-.37,1.36-.78,1.56-2.79,1.35-5.54,3-8.5,3.71a91.42,91.42,0,0,1-12.29,1.62c-2.07.2-4.05,0-3.62,3.16.1.72-1.15,2-2,2.42-4.05,1.69-8.19,3.13-12.94,4.9l5.32,1.41c-2.16,2.85-2.12,2.67-5.2,2a13.66,13.66,0,0,0-6.68.42l2.89,2.06c-5.35-1.49-5.28,2-5.61,4.44-.15,1.07,1.59,2.4,2.64,3.83.43,1.25,1.09,2.83,1.53,4.47.35,1.35.44,2.77.7,4.49l1.86-.28c.75.69-.83,4.6,2.76,2,1.73-1.27,11.21,1,12.45,2.73.31.42-.33,1.53-.5,2.16l8.27,4.42-.79,1.45-2.87-1.61-.56.36L-285,92c.12.18.89,3.47.66,3.75L-290,89c-.16,3.48-.28,6.14-.4,9l2.21-1.5c.38.27.74.47.72.53-.7,1.79-1,4.5-2.27,5.17-3.12,1.62-2.1,3.28-1.25,5.45l4.56-2.75c-.37,2.12-.58,3.36-.93,5.32,1.44-.43,2.49-.79,3.57-1a11.34,11.34,0,0,1,1.94-.07,8.85,8.85,0,0,1,0,1.93,4.06,4.06,0,0,1-1,2c-1.66,1.45-4,2.36-3.49,5.3,0,.25-.93.68-1.51,1.08,2.79,3.48.26,9.29,5.26,12.1-1.59,2.08-2.21,3.84,1.52,5,1.88.6,3.3,2.67,5,4.12l-6.1,4.89.54,1.06-3-2,2.95,6.36,2.79-6.75h4.48c-.16-1-.32-2-.52-3.16l2.52-.41c.4,6.06.4,6.06,5.92,6.38.19.88.38,1.8.61,2.92l-3.32-.23.11.15c-3.3-3.74-6.4.93-9.64-.51l-.24,1.14,3.85,2.38-.16-.11-1.2,2.68,6.2.69v11.23l-10,2.43c2.43,1.59,6.66-1,6.22,4l-2.12,3-3.14-.74a17.29,17.29,0,0,0,1,3.23,16.9,16.9,0,0,0,2.32,2.68c-4.58-.1-5-3.4-5.64-7.41-3.49,5.22,0,10-1.66,14.79l2.95,2.44c.56-1.6.91-2.6,1.25-3.6l.62,0c.11,1.69.15,3.39.39,5.06.06.48.86,1.31,1.07,1.24a5.94,5.94,0,0,0,2.6-1.46,23.26,23.26,0,0,0,2.12-3.64c-2.74-2.35-2.57-3.71,1.79-8.41-2.27,5.65-.88,9.26,4.78,11l-1.06.74-4.72-1.2c1,3.57,2,6.77-3.19,7.16-1.9.14-1.62,4.19.42,6.35a10.13,10.13,0,0,1,2.05,2.84c-3.7-2.11-6.57-1.66-9.2,1.53-.79,1-2.51,1.15-4,1.78.83-2.68,1.64-5.26,2.69-8.6l-6.63,1.54.15.73,2.47.87-2.85,7.52-4.77.56-.33.85,3.62,2.52.34-1.31c.44.43.82,1.11,1.35,1.26,1.55.43,3.16.65,4.82,1a2.5,2.5,0,0,1-.92.54c-2.89.54-5.78,1.12-8.7,1.46-1.15.13-2.82.11-3.44-.58-1-1.08-1.26-2.78-2.1-4.9-.58.92-1.86,2.31-1.62,2.68a55.56,55.56,0,0,0,4.52,5.41c-2.08,1.43-3.79.89-4.3-2.25l-1.11.09c.23,2.7.45,5.4.71,8.64l-4.76-.65c1.39,3.48.9,7.75,5.65,9.89-.24-1.63-.43-2.93-.7-4.79l6.14,4.21Zm-147.21-81.26-.63-2.12c1.32-.54,2.57-2.24,2.4-2.4a62.64,62.64,0,0,0-5.47-4.21c-.93,2.27-1.68,4.07-2.52,6.12,1.92.32,2.79,4.42,6.29,2.54-1,1.58-2,3.16-3,4.87,9.25,3.31,18.64,4.71,28.4,2V161l-2.53.54c-.25-1-.48-1.88-.7-2.78l-.75.88-11.37-7.9,1.09,3.1a41.84,41.84,0,0,0-7.13-.44C-439.88,154.53-441.19,155.78-442.54,156.53ZM-480,118.22a63.72,63.72,0,0,1,2.71,8c.53,2.61,1.54,3.89,4.2,3,1.79,5.58,1.79,5.58,4.23,4.49-2.41-3.77-4.72-7.57-7.24-11.22a38,38,0,0,0-4-4.27c-1.21-2.76-2.45-5.5-3.63-8.27-.8-1.89-1.93-3.76-2.18-5.74-.94-7.56-2.11-15.16-2.18-22.76-.05-6.23.9-12.68,6.63-16.88,2.07-1.52,4.32-2.8,6.45-4.25,5.32-3.62,15-5.58,20.3-.92a53.3,53.3,0,0,1,8.13,9.78,12.39,12.39,0,0,1,1.63,5.6c.32,2.9.54,5.73,3.69,7,.66.27,2.07.32,2.18.06.94-2.19,2.79-4.84,2.21-6.65-1.27-3.94-3.16-8.11-6-11-4.37-4.45-9.72-8-14.74-11.74a36.57,36.57,0,0,0-4.83-2.63l-1.47,2.73c-2.11-.26-2.25-.5-6.53,1.9-5.13,2.87-10.06,6.12-14.95,9.4A7.32,7.32,0,0,0-488,67.53a47.49,47.49,0,0,0-2.36,10c-.55,6.08-1.82,12.48-.53,18.24,1.53,6.83,5.38,13.16,8.36,19.64C-482.06,116.49-480.85,117.28-480,118.22Zm4-39.91c2.26,2.64,2.79,4.6,1.1,7.35-3.9,6.35-3.27,13.35-2.71,20.15.28,3.44,2.16,6.89,3.87,10a56,56,0,0,0,5.82,8c.63.79,1.95,1.92,2.51,1.71a60.24,60.24,0,0,0,7-3.66c-2.77-1-4.89-1-5.78-2.09-3.79-4.64-10.11-8.08-8.72-15.5.68-3.61,1.3-7.65,3.34-10.47A13.64,13.64,0,0,1-460,88c1.43-.14,2.71-1.85,4.61-3.26-3.24-1.6-6-2.67-8.46-4.28-1.93-1.28-3.85-2.8-3.54-5.84a95.4,95.4,0,0,0,.07-9.57h-.92l-1.47,2.56-1.1-4.15c-1.67,3.16-2.89,5.48-4,7.65l3.42,3-3.06-.52C-474.95,75.06-475.43,76.55-476,78.31Zm31.3,64.11,5.23-.93.37,1-1.6,1.83c.64.29,1.9,1,2,.9,2.55-3.33,5.47.14,9-.63-3.15-3.19-1.59-8-5.67-10.74-3.35-2.25-6.24-5.19-9.5-8C-447.58,132.29-448.23,137.88-444.7,142.42Zm13.16-37.87c-.15,2.24-.29,5.09-.54,7.93-.32,3.57,1,6.39,3.47,9,1.93,2,4,4.2,5.06,6.72s2.3,2.24,4.74,1.82c-1.9-6.87-3.74-13.46-5.57-20-.2-1.38-.25-3.24-1.13-3.82C-426.87,105.21-428.81,105.18-431.54,104.55Zm116.31,130.84c.45,1.38,1,3.15,1.73,5.38l-1.72,2,3.4,1.43,3.21,1.38c.62-1.49,1.8-3,1.74-4.47-.09-2.28-1-4.52-1.53-6.49Zm-108.36-69.13c2.46,1.74,4.3,3.13,6.25,4.33a1.87,1.87,0,0,0,1.79-.51,2.84,2.84,0,0,0,.45-2.26C-415.81,166.08-420.89,164.9-423.59,166.26Zm159-100.46c-.95-4.48-4.6-6-8.17-3.75ZM-414.18,253.57l3.65.36,0-1.34c-2.06,0-4.13-.05-6.18.07-.26,0-.76,1.24-.64,1.34,1.33,1.18,2.75,2.25,4.15,3.35l.68-.76Zm131.39-90.3-2.41,5.22.57.21,2.27-2.71.75.46v2.26C-278.68,166-278.93,165.14-282.79,163.27Z" transform="translate(589.22 218.9)"/>
    <path fill="#9B131E" d="M-246.77,263.76c-1.74-.78-3.52-2.19-4.91.58-.18.36-1.2.38-1.84.42-2.52.17-5,.29-8.12.46l-2.92-2.24c-.51.86-1,1.72-2,3.38-2-2.2-4.68-4.11-6-6.7-1.18-2.38-.91-5.49-1.28-8.28-.07-.6.11-1.49-.21-1.75-2-1.56-4-3-6.14-4.5,1.72-2.61,3.66-5.57,5.63-8.52.12-.19.42-.42.59-.39,4.85.78,7.64-3.75,11.83-4.54a5,5,0,0,1,3.77.88c.93.83,1.88,2.72,1.53,3.7-1.05,3-.42,4.53,2.79,5.11.82.15,1.5,1.08,2.92,2.16l-4.22,1.12,2.36,2.55c3.92-2.21,3.92-2.21,3.35-6.93a8.8,8.8,0,0,1,2.23-.83c2.11-.18,5.55.79,2.32-3.2a16.44,16.44,0,0,1,3.55-2.67c.88-.35,2.15.26,3.52,1.12l-4.19,1.7c.83,1.1,1.54,2.17,2.38,3.13a19.64,19.64,0,0,0,2,1.74l1.36-2.44c1.52,1.11,3.37,2.08,1.74,4.61a1.44,1.44,0,0,0,.2,1.39c4.75,3.06.45,4.2-1.18,6a11.45,11.45,0,0,0-1.35,2.49l.13-.09c-3.14-.8-3.73,1-3.58,3.41-1.72,0-4.25.73-5-.12-3.27-3.67-4.79-.76-6.93,1.15-.94.84-2.49,1-3.75,1.48-.62.24-1.2.57-1.8.86l3.72,3,2-2.49,6.3,1Z" transform="translate(589.22 218.9)"/>
    <path fill="#9B131E" d="M-204,181.31l-3.23-.29c0-.25-.05-.49-.07-.73l17.55-3.12c-.44,1.77-.66,2.68-.89,3.59l4.57-.82c-2.89,3.18-8.14,5.87-6.09,11.37l-20.44,1.6,5,2.83a34.4,34.4,0,0,1-4.23,1c-.67.07-1.84-.63-2-.4-3.54,4.66-7.36.07-10.92,0-3.3,0-3.79.65-3.42,3.84l-6.73-2.37c-.24.4-.47.8-.7,1.2.71.56,1.43,1.61,2.14,1.61,4,0,3.19,3,3.18,5.22,0,.49-1.92,1.58-2.53,1.33-2.61-1.06-5.06-2.51-7.94-4-3,3-5.62-1-8.64-1.48-.68-.11-1.5-3.23-1.19-4.74,2.24-10.59,3.57-11.42,13.49-12.55,11-1.25,22.12-1.83,33.19-2.71Z" transform="translate(589.22 218.9)"/>
    <path fill="#9B131E" d="M-246.77,263.76c.25-.76.51-1.52.76-2.29.67-.71,1.34-2.05,2-2,4.38.09,6.19-2.51,7.1-6.24l-.13.09c3.41,1.28,5.38.28,7.06-3.33.46-1,1.43-1.73,2.94-3.49a6.92,6.92,0,0,1,.53,1.85c-.17,5.23,3.3,3.53,6.06,3.28a1.48,1.48,0,0,1,.88.36c-1.47,3.36-2.9,6.58-4.08,9.26,2.22.43,3.83.82,5.47,1,2.83.39,5.68.68,8.57,1l-1.5,2.62c4.81.55,7.07-7.43,12.25-2.8l1.52-3,.49.12c0,.62.14,1.44-.18,1.82-5.79,6.7-12.76,10.89-21.92,11.49-6.63.44-13.18,1.91-19.78,2.85a24.43,24.43,0,0,1-3.53,0h-4.88l-1-5.21-3.55,1.95c-.15-1.28-.3-2.56-.49-4.26l8.66.68C-244.71,267.5-245.74,265.63-246.77,263.76Zm10-1.15c-.37,3.24-.67,5.41-.84,7.58a5.35,5.35,0,0,0,.52,1.79c.58-.28,1.33-.43,1.69-.88a9.86,9.86,0,0,0,1.54-2.74c.61-1.6,1-3.26,1.55-4.9Z" transform="translate(589.22 218.9)"/>
    <path fill="#9B131E" d="M-295.29,237.85a12.54,12.54,0,0,1,.81-2.47,21.61,21.61,0,0,1,2-2.55l-2.83-1.31,2.12-2.18-1.87-1.08s.24-.37.3-.34c3.79,1.6,8,1,11.88,2.37l-3,.41,8.31,2-1.44,3.44,2.1,1.6c-.3.36-.59.91-.77.88-2.38-.44-4.72-1.14-7.11-1.39a7.48,7.48,0,0,0-3.54.94,16.46,16.46,0,0,0-2.64,1.9c-.32-1.33-.5-2.89-.72-2.9a17.22,17.22,0,0,0-3.59.58Z" transform="translate(589.22 218.9)"/>
    <path fill="#9B131E" d="M-202,218.24c-1.71,1.25-4.61,1.59-2.26,4.4.07.08-.18.42-.28.63-1.32,2.77-4.1,5.44.51,8.61l-1.74.37-8.39-12.68a21.44,21.44,0,0,1-.72,2.35,14.67,14.67,0,0,1-1.12,1.91,14.64,14.64,0,0,1-1.41-2.23,1.41,1.41,0,0,1,.41-1.32c3.94-1.78,7.88-3.62,12-5C-204.42,215.06-203.07,217.12-202,218.24Zm-9.16,3.53c1.88,1.63,3,4.55,5.93,1.55C-206.89,221.38-207.85,218.36-211.12,221.77Z" transform="translate(589.22 218.9)"/>
    <path fill="#9B131E" d="M-251.16,223c-.12-5.63,1.45-8.11,4.8-8.62s5.29,1.5,4.58,4.72c-.32,1.44-.12,3.51-2.62,3.68-.73,0-1.4.9-2.11,1.36-1,.68-2,1.34-3.06,2Z" transform="translate(589.22 218.9)"/>
    <path fill="#9B131E" d="M-195.77,34.79c4,5.51,4,5.65,0,9.48-1.16,1.12-2.29,2.27-3.52,3.32s-2.36,1.8-3.59,2.72c-1.87-1-2.39-2-.85-4C-201,42.77-198.62,39-195.77,34.79Z" transform="translate(589.22 218.9)"/>
    <path fill="#9B131E" d="M-272.07-38.11c1.81-.33,4.47,2,5.15-1.72l1.69,3-3.39,3.24Z" transform="translate(589.22 218.9)"/>
    <path fill="#9B131E" d="M-269.28,149.66c-.61,1.66-1.23,3.32-1.58,4.28l-4.5-1.23.16.11c.74-3.53,4.19-1.67,6-3Z" transform="translate(589.22 218.9)"/>
    <path fill="#9B131E" d="M-231.63,235.23l-6.78-3.52.85-1.56,6.59,4Z" transform="translate(589.22 218.9)"/>
  </g>
</svg>
