<svg id="Calque_1" data-name="Calque 1" xmlns="http://www.w3.org/2000/svg" viewBox="0 0 67.01 112.8">
  <title>LogoBoss</title>
  <g>
    <path d="M128.1,112.8l-5.9-1.4a47.67,47.67,0,0,1-11.1-4.1,46.34,46.34,0,0,1-9.6-6.8l8-10.6a34.85,34.85,0,0,0,25.2,9.8c6.7,0,11.8-1.3,15.4-4a13.19,13.19,0,0,0,5.5-11.3v-.1a12.12,12.12,0,0,0-2.5-8.2,15.26,15.26,0,0,0-6.4-4.5A58.67,58.67,0,0,0,136.5,69c-.1,0-.3-.1-.4-.1a.6.6,0,0,1-.4-.1l-.9-.2a87.08,87.08,0,0,1-15-3.9,22.33,22.33,0,0,1-9.9-7.8c-2.7-3.8-4.1-9.2-4.1-16.2v-.1a30.68,30.68,0,0,1,3.8-15.7,25,25,0,0,1,11.1-10,40.67,40.67,0,0,1,17.6-3.4,39.65,39.65,0,0,1,9.7,1.2,50.11,50.11,0,0,1,9.4,3.4,54,54,0,0,1,9.1,5.8l-7.3,11a40.91,40.91,0,0,0-10.4-6.2,26.84,26.84,0,0,0-10.4-2.1c-6.3,0-11.1,1.4-14.6,4.1s-5.2,6.5-5.2,11.5v.1a11.55,11.55,0,0,0,2.7,8.1,14.92,14.92,0,0,0,6.7,4.3,86.28,86.28,0,0,0,11.1,2.9c.2,0,.3.1.5.1s.3.1.5.1l.7.1.7.1a68.07,68.07,0,0,1,13.9,4.4,22.17,22.17,0,0,1,9.3,8.1c2.5,3.8,3.8,8.9,3.8,15.4V84a29.19,29.19,0,0,1-4,15.5,25,25,0,0,1-11.5,9.8c-5,2.3-11.1,3.4-18.2,3.4Z" transform="translate(-101.5)" style="fill: gold"/>
    <path d="M162.5,78.1l-2.4-3.6-.5.1c3.3,5.7,3.5,11.8,2.9,18.1-.5-.9-1-1.8-1.4-2.7a26.23,26.23,0,0,0-8.4-10c-6.7-5.2-14.5-8-22.7-9.6-1.2-.2-2.4-.5-3.8-.8l.7,1.6a23,23,0,0,1-4.2-1.4,38.83,38.83,0,0,1-15.4-14.4l-.2,1.1c-3.2-2-4.2-5-3.5-8.9L102,49.7l-.4-.2a19.06,19.06,0,0,1,1-3.4,18.91,18.91,0,0,0,2.1-9,22,22,0,0,1,3-11l-1.2.8c.7-4.6,3.8-7.7,5.8-11L104.4,5.6l.4-.7h16.1L120.4,0c2.8.9,5.3,1.8,7.8,2.4a44.75,44.75,0,0,0,8.9,1.5,7.74,7.74,0,0,1,6.4,3.3,20.6,20.6,0,0,0,11.2,7.5c3.1.7,6.3,1.2,9.4,1.6a15,15,0,0,0,3,0c-1.6,3.5-3.7,6.9-4.5,10.6-.6,2.7-3,4.3-3.4,6.8-.1.3-.8.4-1.2.6-.1.1-.4-.1-.5,0-1.6,2.2-3.6.8-5.3.5a20.84,20.84,0,0,0-9.3.3,22.19,22.19,0,0,0-4.1,2c-.4.2-1.1.1-1.4.3a5,5,0,0,0-1.5,1.7,8.8,8.8,0,0,0,5.8,11.1l1.1.3c2.5.4,5,.5,7.5.8a9.74,9.74,0,0,1,4,1.5l-4.3-.9a23.49,23.49,0,0,1,12.9,10.9l-2.3-2.1c1.5,3.4,2.8,6.5,4.2,9.6l-.3.1-5-6.3-.4.2A33,33,0,0,1,162.5,78.1Z" transform="translate(-101.5)" style="fill: gold"/>
  </g>
</svg>
