<svg id="Calque_1" data-name="Calque 1" xmlns="http://www.w3.org/2000/svg" viewBox="0 0 110.26 131.51">
  <title>LogoEbooks</title>
  <g>
    <path d="M159.43,143.22c-1-4.29-2.7-8.62-7.64-10.36-1.08-.38-2.49-1.27-2.35-2.58.34-3.36-1.72-3.11-3.95-3.11-25,0-50-.13-75,.14-5.51.06-8.91-3.27-13-5.7A3.56,3.56,0,0,1,56,119.16a10.94,10.94,0,0,1,10.55-12.9q39,0,78,0c4.7,0,5.49-2,3.79-6.29s-5.27-7.71-6.41-12.5a22.21,22.21,0,0,0-3.19-6.31c-2.55-3.9-6.58-2.64-10.18-2.76s-4.31-1.13-2.93-4.52c1.1-2.72,2.14-5.52,2-8.52-.14-4.32.8-8.57-2.3-12.75A23.86,23.86,0,0,0,120,46.86c-2.53-1.81-5.5-.25-8.09-1.91a7.6,7.6,0,0,1,1.27-.71c2.66-.71,4-2.59,2.75-5s-3.16-2.86-5.88-1.16c-1.59,1-3,2.3-4.89,3.28-.17-1.9-1.43-2.92-2.36-4.2-1.42-2-4-2.41-5.31-4.45H84.75c-.25,4.38.56,8.4,3.7,11.75,1,1.09,1.07,2.75-.84,2.51-3.23-.42-5.11,1.43-6.87,3.4S78.67,55.25,78.82,58s0,5.51.05,8.25c.09,2.38-.18,4.64,1.21,7.07,1.79,3.1.17,5-3.45,5-2.5,0-5,.12-7.5,0-3.94-.23-6.26,2.62-7.27,5.31C58.89,91.6,55.3,99.25,52,107c-3.09,7.14-3.81,14.63,2.59,20.94.51.51,1.39.85.65,2.36-1.76,3.6-.59,6.9,4.65,6.86,28.12-.17,56.24,0,84.36-.07,2.15,0,3.51.9,5.18,2.13,3.34,2.45,3,5.67,2.9,9a8.17,8.17,0,0,1-7.71,7.68q-27.93.06-55.86.07H61c-3.11,0-6.72,2.49-6.25,4.47.7,2.93,2.8,3.6,5.79,3.58,22.12-.13,44.25.16,66.36-.2,7.13-.12,14.47,2,21.51-1.9,2.6-1.44,5.42-2.81,7.41-4.75C159.58,153.46,160.65,148.29,159.43,143.22ZM90.9,53.69c3.69-.2,6.95.08,9.56,3.32,2.2,2.72,4,.55,5.76-1.08,3.59-3.41,10.21-3.13,13.4.33,2.16,2.34.31,5,.83,6.35,1.12,8.51-2.54,14.3-6.49,20-2,2.86-4.48,3.77-7.92,1.93a7.1,7.1,0,0,0-7,.18c-3.06,1.72-5.86.84-7.22-2.3-.62-1.45-1.8-2.34-2.63-3.56C85.26,73,85,66.38,84.75,59.8,84.58,56.24,87.28,53.89,90.9,53.69ZM67.49,88.06a3.49,3.49,0,0,1,3.79-2.74c2.37.07,4.75.12,7.12,0,4.38-.25,8.35-.22,10.87,4.55,1.28,2.41,9.09,3,12.42,1.53.66-.3.87-.81,1.79-.25,6,3.66,10.5,2.58,14.24-3.34a4.57,4.57,0,0,1,4.43-2.51c3,.16,6,.06,9,0,2.34,0,3.82,1,3.85,3.44,0,2.73,1.52,4.76,3,6.83.54.76,1.77,1.19,1.3,2.44-.56,1.48-1.9.91-2.91.92-14.36,0-28.72,0-43.07,0q-14.06,0-28.09,0a10.25,10.25,0,0,1-1.6-.21C64.16,94.84,66.45,91.69,67.49,88.06Z" transform="translate(-49.65 -32.75)" style="fill: #fd2c9b"/>
    <path d="M102.71,144.46c-12.62,0-25.23,0-37.85,0-1.17,0-3.2.8-3.13-1.44a3.08,3.08,0,0,1,3.18-2.91c.49,0,1,0,1.5,0q36.91,0,73.83,0c1.22,0,3-.77,3.42,1.26.57,2.54-.69,3.17-3.09,3.15-10.5-.1-21,0-31.49,0Z" transform="translate(-49.65 -32.75)" style="fill: #fe309d"/>
    <path d="M102.69,113.57c-12.24,0-24.49.05-36.73-.06-1.47,0-4.18,1.18-4.17-1.49,0-2.45,2.36-2.89,4.69-2.88,16.11.06,32.23,0,48.34,0h24a6.11,6.11,0,0,1,2.59.16c1.13.61,2.58,1.35,2.25,3s-2,1.2-3.1,1.2C127.92,113.59,115.31,113.57,102.69,113.57Z" transform="translate(-49.65 -32.75)" style="fill: #fc329d"/>
    <path d="M102.37,122.06c-12.49,0-25,0-37.48,0-1.13,0-3.16,1-3.18-1.31,0-1.8,1.5-2.67,3.19-3a12.84,12.84,0,0,1,2.24,0h71.22a11.93,11.93,0,0,1,2.24,0c1.73.34,3.12,1.4,3,3.18s-1.94,1.12-3,1.12C127.86,122.08,115.11,122.06,102.37,122.06Z" transform="translate(-49.65 -32.75)" style="fill: #fa2f9c"/>
    <path d="M102.76,153c-12.61,0-25.22,0-37.83,0-1.15,0-3.24.85-3.15-1.33a3,3,0,0,1,3.32-2.77c3.62,0,7.25,0,10.87,0q32,0,64.05,0c1.22,0,3-.81,3.57,1,.79,2.56-.62,3.16-3,3.14-10.87-.1-21.73,0-32.59,0Z" transform="translate(-49.65 -32.75)" style="fill: #fe2c9b"/>
    <path d="M96.76,45.45a16.38,16.38,0,0,0-1-2.11c-1-1.3-3.11-1.88-2.52-4.08A.7.7,0,0,1,94.43,39C95.63,40.56,98.62,41.21,96.76,45.45Z" transform="translate(-49.65 -32.75)" style="fill: #fcd3e9"/>
  </g>
</svg>
