<svg id="Calque_1" data-name="Calque 1" xmlns="http://www.w3.org/2000/svg" viewBox="0 0 1604.83 857.15">
  <title>Sans titre - 1</title>
  <g>
    <path d="M60.13,596a98.46,98.46,0,0,0,20-20" transform="translate(-59.78 -189.39)" style="fill: none;stroke: #d2ceca;stroke-linejoin: round"/>
    <path d="M80.13,596l-20-20" transform="translate(-59.78 -189.39)" style="fill: none;stroke: #d2ceca;stroke-linejoin: round"/>
  </g>
  <g>
    <path d="M869.89,351.41a98.46,98.46,0,0,0,20-20" transform="translate(-59.78 -189.39)" style="fill: none;stroke: #d2ceca;stroke-linejoin: round"/>
    <path d="M889.89,351.41l-20-20" transform="translate(-59.78 -189.39)" style="fill: none;stroke: #d2ceca;stroke-linejoin: round"/>
  </g>
  <g>
    <path d="M1644.21,209.75a98.72,98.72,0,0,0,20-20" transform="translate(-59.78 -189.39)" style="fill: none;stroke: #d2ceca;stroke-linejoin: round"/>
    <path d="M1664.21,209.75l-20-20" transform="translate(-59.78 -189.39)" style="fill: none;stroke: #d2ceca;stroke-linejoin: round"/>
  </g>
  <g>
    <path d="M1477.48,865.1a98.46,98.46,0,0,0,20-20" transform="translate(-59.78 -189.39)" style="fill: none;stroke: #d2ceca;stroke-linejoin: round"/>
    <path d="M1497.48,865.1l-20-20" transform="translate(-59.78 -189.39)" style="fill: none;stroke: #d2ceca;stroke-linejoin: round"/>
  </g>
  <text transform="translate(1060.79 848.37)" style="font-size: 24.725311279296875px;fill: none;stroke: #d2ceca;stroke-miterlimit: 10;font-family: Kanit-Thin, Kanit;font-weight: 200">#1B2D3E</text>
  <text transform="translate(94.86 839.7)" style="font-size: 35.30625534057617px;fill: none;stroke: #d2ceca;stroke-miterlimit: 10;font-family: Kanit-SemiBold, Kanit;font-weight: 600"><tspan style="letter-spacing: -0.045002427251863604em">C</tspan><tspan x="19.7" y="0" style="letter-spacing: -0.014991589164419221em">o</tspan><tspan x="40.25" y="0">de</tspan></text>
</svg>
